<svg width="1000" height="300" viewBox="0 0 1000 300" fill="none" xmlns="http://www.w3.org/2000/svg">
  <rect x="1" y="1" width="998" height="298" rx="22" fill="#1a1b26" stroke="#2f3549" stroke-width="2"/>

  <style>
    .mono { font-family: ui-monospace, SFMono-Regular, Menlo, Monaco, Consolas, "Liberation Mono", monospace; }
    .title { fill: #c0caf5; font-size: 26px; font-weight: 700; }
    .muted { fill: #7f849c; font-size: 16px; }
    .big { fill: #c0caf5; font-size: 44px; font-weight: 700; }
    .label { fill: #a9b1d6; font-size: 16px; }
    .pct { fill: #c0caf5; font-size: 16px; font-weight: 600; }
  </style>

  <text x="44" y="54" class="mono title">PRIVATE SIGNAL</text>
  <text x="44" y="82" class="mono muted">aggregated snapshot — repository names and details stay private</text>

  <text x="44" y="146" class="mono big">12</text>
  <text x="112" y="134" class="mono label">private repositories</text>
  <text x="112" y="158" class="mono muted">9 active · 3 archived</text>

  <text x="390" y="134" class="mono big">9.7 MB</text>
  <text x="390" y="158" class="mono muted">language-classified source</text>

  <text x="44" y="204" class="mono label">language mix</text>

  <clipPath id="barClip"><rect x="44" y="222" width="912" height="18" rx="9"/></clipPath>
  <g clip-path="url(#barClip)">
    <rect x="44" y="222" width="464" height="18" fill="#7dcfff"/>
    <rect x="508" y="222" width="185" height="18" fill="#7aa2f7"/>
    <rect x="693" y="222" width="101" height="18" fill="#e0af68"/>
    <rect x="794" y="222" width="96" height="18" fill="#ff9e64"/>
    <rect x="890" y="222" width="45" height="18" fill="#bb9af7"/>
    <rect x="935" y="222" width="21" height="18" fill="#9ece6a"/>
  </g>

  <circle cx="53" cy="267" r="5" fill="#7dcfff"/><text x="67" y="273" class="mono label">Go</text><text x="106" y="273" class="mono pct">50.9%</text>
  <circle cx="205" cy="267" r="5" fill="#7aa2f7"/><text x="219" y="273" class="mono label">TypeScript</text><text x="314" y="273" class="mono pct">20.3%</text>
  <circle cx="414" cy="267" r="5" fill="#e0af68"/><text x="428" y="273" class="mono label">JavaScript</text><text x="523" y="273" class="mono pct">11.1%</text>
  <circle cx="623" cy="267" r="5" fill="#ff9e64"/><text x="637" y="273" class="mono label">HTML</text><text x="685" y="273" class="mono pct">10.5%</text>
  <circle cx="776" cy="267" r="5" fill="#bb9af7"/><text x="790" y="273" class="mono label">CSS</text><text x="829" y="273" class="mono pct">4.9%</text>
  <circle cx="900" cy="267" r="5" fill="#9ece6a"/><text x="914" y="273" class="mono label">other</text><text x="960" y="273" text-anchor="end" class="mono pct">2.3%</text>
</svg>
